G04 EAGLE Gerber RS-274X export*
G75*
%MOMM*%
%FSLAX34Y34*%
%LPD*%
%INTop Copper*%
%IPPOS*%
%AMOC8*
5,1,8,0,0,1.08239X$1,22.5*%
G01*
%ADD10R,1.000000X1.000000*%
%ADD11C,1.676400*%
%ADD12C,0.203200*%
%ADD13C,0.800100*%
%ADD14C,0.609600*%

G36*
X308728Y25416D02*
X308728Y25416D01*
X308847Y25423D01*
X308885Y25436D01*
X308926Y25441D01*
X309036Y25484D01*
X309149Y25521D01*
X309184Y25543D01*
X309221Y25558D01*
X309317Y25628D01*
X309418Y25691D01*
X309446Y25721D01*
X309479Y25744D01*
X309555Y25836D01*
X309636Y25923D01*
X309656Y25958D01*
X309681Y25989D01*
X309732Y26097D01*
X309790Y26201D01*
X309800Y26241D01*
X309817Y26277D01*
X309839Y26394D01*
X309869Y26509D01*
X309873Y26570D01*
X309877Y26590D01*
X309875Y26610D01*
X309879Y26670D01*
X309879Y157466D01*
X309867Y157565D01*
X309864Y157664D01*
X309847Y157722D01*
X309839Y157782D01*
X309803Y157874D01*
X309775Y157969D01*
X309745Y158021D01*
X309722Y158078D01*
X309664Y158158D01*
X309614Y158243D01*
X309548Y158318D01*
X309536Y158335D01*
X309526Y158343D01*
X309507Y158364D01*
X308671Y159201D01*
X307085Y163028D01*
X307085Y165100D01*
X307070Y165218D01*
X307063Y165337D01*
X307050Y165375D01*
X307045Y165416D01*
X307002Y165526D01*
X306965Y165639D01*
X306943Y165674D01*
X306928Y165711D01*
X306859Y165807D01*
X306795Y165908D01*
X306765Y165936D01*
X306742Y165969D01*
X306650Y166045D01*
X306563Y166126D01*
X306528Y166146D01*
X306497Y166171D01*
X306389Y166222D01*
X306285Y166280D01*
X306245Y166290D01*
X306209Y166307D01*
X306092Y166329D01*
X305977Y166359D01*
X305917Y166363D01*
X305897Y166367D01*
X305876Y166365D01*
X305816Y166369D01*
X303784Y166369D01*
X303666Y166354D01*
X303547Y166347D01*
X303509Y166334D01*
X303468Y166329D01*
X303358Y166286D01*
X303245Y166249D01*
X303210Y166227D01*
X303173Y166212D01*
X303077Y166143D01*
X302976Y166079D01*
X302948Y166049D01*
X302915Y166026D01*
X302839Y165934D01*
X302758Y165847D01*
X302738Y165812D01*
X302713Y165781D01*
X302662Y165673D01*
X302604Y165569D01*
X302594Y165529D01*
X302577Y165493D01*
X302555Y165376D01*
X302525Y165261D01*
X302521Y165201D01*
X302517Y165181D01*
X302519Y165160D01*
X302515Y165100D01*
X302515Y163028D01*
X300929Y159201D01*
X297999Y156271D01*
X294172Y154685D01*
X290028Y154685D01*
X286201Y156271D01*
X283271Y159201D01*
X281685Y163028D01*
X281685Y165100D01*
X281670Y165218D01*
X281663Y165337D01*
X281650Y165375D01*
X281645Y165416D01*
X281602Y165526D01*
X281565Y165639D01*
X281543Y165674D01*
X281528Y165711D01*
X281459Y165807D01*
X281395Y165908D01*
X281365Y165936D01*
X281342Y165969D01*
X281250Y166045D01*
X281163Y166126D01*
X281128Y166146D01*
X281097Y166171D01*
X280989Y166222D01*
X280885Y166280D01*
X280845Y166290D01*
X280809Y166307D01*
X280692Y166329D01*
X280577Y166359D01*
X280517Y166363D01*
X280497Y166367D01*
X280476Y166365D01*
X280416Y166369D01*
X278384Y166369D01*
X278266Y166354D01*
X278147Y166347D01*
X278109Y166334D01*
X278068Y166329D01*
X277958Y166286D01*
X277845Y166249D01*
X277810Y166227D01*
X277773Y166212D01*
X277677Y166143D01*
X277576Y166079D01*
X277548Y166049D01*
X277515Y166026D01*
X277439Y165934D01*
X277358Y165847D01*
X277338Y165812D01*
X277313Y165781D01*
X277262Y165673D01*
X277204Y165569D01*
X277194Y165529D01*
X277177Y165493D01*
X277155Y165376D01*
X277125Y165261D01*
X277121Y165201D01*
X277117Y165181D01*
X277119Y165160D01*
X277115Y165100D01*
X277115Y163028D01*
X275529Y159201D01*
X272599Y156271D01*
X268772Y154685D01*
X264628Y154685D01*
X260801Y156271D01*
X257871Y159201D01*
X256285Y163028D01*
X256285Y165100D01*
X256270Y165218D01*
X256263Y165337D01*
X256250Y165375D01*
X256245Y165416D01*
X256202Y165526D01*
X256165Y165639D01*
X256143Y165674D01*
X256128Y165711D01*
X256059Y165807D01*
X255995Y165908D01*
X255965Y165936D01*
X255942Y165969D01*
X255850Y166045D01*
X255763Y166126D01*
X255728Y166146D01*
X255697Y166171D01*
X255589Y166222D01*
X255485Y166280D01*
X255445Y166290D01*
X255409Y166307D01*
X255292Y166329D01*
X255177Y166359D01*
X255117Y166363D01*
X255097Y166367D01*
X255076Y166365D01*
X255016Y166369D01*
X252984Y166369D01*
X252866Y166354D01*
X252747Y166347D01*
X252709Y166334D01*
X252668Y166329D01*
X252558Y166286D01*
X252445Y166249D01*
X252410Y166227D01*
X252373Y166212D01*
X252277Y166143D01*
X252176Y166079D01*
X252148Y166049D01*
X252115Y166026D01*
X252039Y165934D01*
X251958Y165847D01*
X251938Y165812D01*
X251913Y165781D01*
X251862Y165673D01*
X251804Y165569D01*
X251794Y165529D01*
X251777Y165493D01*
X251755Y165376D01*
X251725Y165261D01*
X251721Y165201D01*
X251717Y165181D01*
X251719Y165160D01*
X251715Y165100D01*
X251715Y163028D01*
X250129Y159201D01*
X247199Y156271D01*
X243372Y154685D01*
X239228Y154685D01*
X235401Y156271D01*
X232471Y159201D01*
X230885Y163028D01*
X230885Y165100D01*
X230870Y165218D01*
X230863Y165337D01*
X230850Y165375D01*
X230845Y165416D01*
X230802Y165526D01*
X230765Y165639D01*
X230743Y165674D01*
X230728Y165711D01*
X230659Y165807D01*
X230595Y165908D01*
X230565Y165936D01*
X230542Y165969D01*
X230450Y166045D01*
X230363Y166126D01*
X230328Y166146D01*
X230297Y166171D01*
X230189Y166222D01*
X230085Y166280D01*
X230045Y166290D01*
X230009Y166307D01*
X229892Y166329D01*
X229777Y166359D01*
X229717Y166363D01*
X229697Y166367D01*
X229676Y166365D01*
X229616Y166369D01*
X227584Y166369D01*
X227466Y166354D01*
X227347Y166347D01*
X227309Y166334D01*
X227268Y166329D01*
X227158Y166286D01*
X227045Y166249D01*
X227010Y166227D01*
X226973Y166212D01*
X226877Y166143D01*
X226776Y166079D01*
X226748Y166049D01*
X226715Y166026D01*
X226639Y165934D01*
X226558Y165847D01*
X226538Y165812D01*
X226513Y165781D01*
X226462Y165673D01*
X226404Y165569D01*
X226394Y165529D01*
X226377Y165493D01*
X226355Y165376D01*
X226325Y165261D01*
X226321Y165201D01*
X226317Y165181D01*
X226319Y165160D01*
X226315Y165100D01*
X226315Y163028D01*
X224729Y159201D01*
X221799Y156271D01*
X217972Y154685D01*
X213828Y154685D01*
X210001Y156271D01*
X207071Y159201D01*
X205485Y163028D01*
X205485Y165100D01*
X205470Y165218D01*
X205463Y165337D01*
X205450Y165375D01*
X205445Y165416D01*
X205402Y165526D01*
X205365Y165639D01*
X205343Y165674D01*
X205328Y165711D01*
X205259Y165807D01*
X205195Y165908D01*
X205165Y165936D01*
X205142Y165969D01*
X205050Y166045D01*
X204963Y166126D01*
X204928Y166146D01*
X204897Y166171D01*
X204789Y166222D01*
X204685Y166280D01*
X204645Y166290D01*
X204609Y166307D01*
X204492Y166329D01*
X204377Y166359D01*
X204317Y166363D01*
X204297Y166367D01*
X204276Y166365D01*
X204216Y166369D01*
X202184Y166369D01*
X202066Y166354D01*
X201947Y166347D01*
X201909Y166334D01*
X201868Y166329D01*
X201758Y166286D01*
X201645Y166249D01*
X201610Y166227D01*
X201573Y166212D01*
X201477Y166143D01*
X201376Y166079D01*
X201348Y166049D01*
X201315Y166026D01*
X201239Y165934D01*
X201158Y165847D01*
X201138Y165812D01*
X201113Y165781D01*
X201062Y165673D01*
X201004Y165569D01*
X200994Y165529D01*
X200977Y165493D01*
X200955Y165376D01*
X200925Y165261D01*
X200921Y165201D01*
X200917Y165181D01*
X200919Y165160D01*
X200915Y165100D01*
X200915Y163028D01*
X199329Y159201D01*
X196399Y156271D01*
X192572Y154685D01*
X188428Y154685D01*
X184601Y156271D01*
X181671Y159201D01*
X180085Y163028D01*
X180085Y165100D01*
X180070Y165218D01*
X180063Y165337D01*
X180050Y165375D01*
X180045Y165416D01*
X180002Y165526D01*
X179965Y165639D01*
X179943Y165674D01*
X179928Y165711D01*
X179859Y165807D01*
X179795Y165908D01*
X179765Y165936D01*
X179742Y165969D01*
X179650Y166045D01*
X179563Y166126D01*
X179528Y166146D01*
X179497Y166171D01*
X179389Y166222D01*
X179285Y166280D01*
X179245Y166290D01*
X179209Y166307D01*
X179092Y166329D01*
X178977Y166359D01*
X178917Y166363D01*
X178897Y166367D01*
X178876Y166365D01*
X178816Y166369D01*
X176784Y166369D01*
X176666Y166354D01*
X176547Y166347D01*
X176509Y166334D01*
X176468Y166329D01*
X176358Y166286D01*
X176245Y166249D01*
X176210Y166227D01*
X176173Y166212D01*
X176077Y166143D01*
X175976Y166079D01*
X175948Y166049D01*
X175915Y166026D01*
X175839Y165934D01*
X175758Y165847D01*
X175738Y165812D01*
X175713Y165781D01*
X175662Y165673D01*
X175604Y165569D01*
X175594Y165529D01*
X175577Y165493D01*
X175555Y165376D01*
X175525Y165261D01*
X175521Y165201D01*
X175517Y165181D01*
X175519Y165160D01*
X175515Y165100D01*
X175515Y163028D01*
X173929Y159201D01*
X170999Y156271D01*
X167172Y154685D01*
X163028Y154685D01*
X159201Y156271D01*
X156271Y159201D01*
X154685Y163028D01*
X154685Y165100D01*
X154670Y165218D01*
X154663Y165337D01*
X154650Y165375D01*
X154645Y165416D01*
X154602Y165526D01*
X154565Y165639D01*
X154543Y165674D01*
X154528Y165711D01*
X154459Y165807D01*
X154395Y165908D01*
X154365Y165936D01*
X154342Y165969D01*
X154250Y166045D01*
X154163Y166126D01*
X154128Y166146D01*
X154097Y166171D01*
X153989Y166222D01*
X153885Y166280D01*
X153845Y166290D01*
X153809Y166307D01*
X153692Y166329D01*
X153577Y166359D01*
X153517Y166363D01*
X153497Y166367D01*
X153476Y166365D01*
X153416Y166369D01*
X151384Y166369D01*
X151266Y166354D01*
X151147Y166347D01*
X151109Y166334D01*
X151068Y166329D01*
X150958Y166286D01*
X150845Y166249D01*
X150810Y166227D01*
X150773Y166212D01*
X150677Y166143D01*
X150576Y166079D01*
X150548Y166049D01*
X150515Y166026D01*
X150439Y165934D01*
X150358Y165847D01*
X150338Y165812D01*
X150313Y165781D01*
X150262Y165673D01*
X150204Y165569D01*
X150194Y165529D01*
X150177Y165493D01*
X150155Y165376D01*
X150125Y165261D01*
X150121Y165201D01*
X150117Y165181D01*
X150119Y165160D01*
X150115Y165100D01*
X150115Y163028D01*
X148529Y159201D01*
X145599Y156271D01*
X141772Y154685D01*
X137628Y154685D01*
X133801Y156271D01*
X130871Y159201D01*
X129285Y163028D01*
X129285Y165100D01*
X129270Y165218D01*
X129263Y165337D01*
X129250Y165375D01*
X129245Y165416D01*
X129202Y165526D01*
X129165Y165639D01*
X129143Y165674D01*
X129128Y165711D01*
X129059Y165807D01*
X128995Y165908D01*
X128965Y165936D01*
X128942Y165969D01*
X128850Y166045D01*
X128763Y166126D01*
X128728Y166146D01*
X128697Y166171D01*
X128589Y166222D01*
X128485Y166280D01*
X128445Y166290D01*
X128409Y166307D01*
X128292Y166329D01*
X128177Y166359D01*
X128117Y166363D01*
X128097Y166367D01*
X128076Y166365D01*
X128016Y166369D01*
X125984Y166369D01*
X125866Y166354D01*
X125747Y166347D01*
X125709Y166334D01*
X125668Y166329D01*
X125558Y166286D01*
X125445Y166249D01*
X125410Y166227D01*
X125373Y166212D01*
X125277Y166143D01*
X125176Y166079D01*
X125148Y166049D01*
X125115Y166026D01*
X125039Y165934D01*
X124958Y165847D01*
X124938Y165812D01*
X124913Y165781D01*
X124862Y165673D01*
X124804Y165569D01*
X124794Y165529D01*
X124777Y165493D01*
X124755Y165376D01*
X124725Y165261D01*
X124721Y165201D01*
X124717Y165181D01*
X124719Y165160D01*
X124715Y165100D01*
X124715Y163028D01*
X123129Y159201D01*
X120199Y156271D01*
X116372Y154685D01*
X112228Y154685D01*
X108401Y156271D01*
X105471Y159201D01*
X103885Y163028D01*
X103885Y165100D01*
X103870Y165218D01*
X103863Y165337D01*
X103850Y165375D01*
X103845Y165416D01*
X103802Y165526D01*
X103765Y165639D01*
X103743Y165674D01*
X103728Y165711D01*
X103659Y165807D01*
X103595Y165908D01*
X103565Y165936D01*
X103542Y165969D01*
X103450Y166045D01*
X103363Y166126D01*
X103328Y166146D01*
X103297Y166171D01*
X103189Y166222D01*
X103085Y166280D01*
X103045Y166290D01*
X103009Y166307D01*
X102892Y166329D01*
X102777Y166359D01*
X102717Y166363D01*
X102697Y166367D01*
X102676Y166365D01*
X102616Y166369D01*
X100584Y166369D01*
X100466Y166354D01*
X100347Y166347D01*
X100309Y166334D01*
X100268Y166329D01*
X100158Y166286D01*
X100045Y166249D01*
X100010Y166227D01*
X99973Y166212D01*
X99877Y166143D01*
X99776Y166079D01*
X99748Y166049D01*
X99715Y166026D01*
X99639Y165934D01*
X99558Y165847D01*
X99538Y165812D01*
X99513Y165781D01*
X99462Y165673D01*
X99404Y165569D01*
X99394Y165529D01*
X99377Y165493D01*
X99355Y165376D01*
X99325Y165261D01*
X99321Y165201D01*
X99317Y165181D01*
X99319Y165160D01*
X99315Y165100D01*
X99315Y163028D01*
X97729Y159201D01*
X94799Y156271D01*
X90972Y154685D01*
X86828Y154685D01*
X83001Y156271D01*
X80071Y159201D01*
X78485Y163028D01*
X78485Y165100D01*
X78470Y165218D01*
X78463Y165337D01*
X78450Y165375D01*
X78445Y165416D01*
X78402Y165526D01*
X78365Y165639D01*
X78343Y165674D01*
X78328Y165711D01*
X78259Y165807D01*
X78195Y165908D01*
X78165Y165936D01*
X78142Y165969D01*
X78050Y166045D01*
X77963Y166126D01*
X77928Y166146D01*
X77897Y166171D01*
X77789Y166222D01*
X77685Y166280D01*
X77645Y166290D01*
X77609Y166307D01*
X77492Y166329D01*
X77377Y166359D01*
X77317Y166363D01*
X77297Y166367D01*
X77276Y166365D01*
X77216Y166369D01*
X75184Y166369D01*
X75066Y166354D01*
X74947Y166347D01*
X74909Y166334D01*
X74868Y166329D01*
X74758Y166286D01*
X74645Y166249D01*
X74610Y166227D01*
X74573Y166212D01*
X74477Y166143D01*
X74376Y166079D01*
X74348Y166049D01*
X74315Y166026D01*
X74239Y165934D01*
X74158Y165847D01*
X74138Y165812D01*
X74113Y165781D01*
X74062Y165673D01*
X74004Y165569D01*
X73994Y165529D01*
X73977Y165493D01*
X73955Y165376D01*
X73925Y165261D01*
X73921Y165201D01*
X73917Y165181D01*
X73919Y165160D01*
X73915Y165100D01*
X73915Y163028D01*
X72329Y159201D01*
X69399Y156271D01*
X65572Y154685D01*
X61428Y154685D01*
X57601Y156271D01*
X54671Y159201D01*
X53085Y163028D01*
X53085Y165100D01*
X53070Y165218D01*
X53063Y165337D01*
X53050Y165375D01*
X53045Y165416D01*
X53002Y165526D01*
X52965Y165639D01*
X52943Y165674D01*
X52928Y165711D01*
X52859Y165807D01*
X52795Y165908D01*
X52765Y165936D01*
X52742Y165969D01*
X52650Y166045D01*
X52563Y166126D01*
X52528Y166146D01*
X52497Y166171D01*
X52389Y166222D01*
X52285Y166280D01*
X52245Y166290D01*
X52209Y166307D01*
X52092Y166329D01*
X51977Y166359D01*
X51917Y166363D01*
X51897Y166367D01*
X51876Y166365D01*
X51816Y166369D01*
X39330Y166369D01*
X39212Y166354D01*
X39093Y166347D01*
X39055Y166334D01*
X39015Y166329D01*
X38904Y166286D01*
X38791Y166249D01*
X38757Y166227D01*
X38719Y166212D01*
X38623Y166143D01*
X38522Y166079D01*
X38494Y166049D01*
X38462Y166026D01*
X38386Y165934D01*
X38304Y165847D01*
X38285Y165812D01*
X38259Y165781D01*
X38208Y165673D01*
X38151Y165569D01*
X38141Y165529D01*
X38123Y165493D01*
X38103Y165386D01*
X38099Y165416D01*
X38055Y165526D01*
X38019Y165639D01*
X37997Y165674D01*
X37982Y165711D01*
X37912Y165807D01*
X37849Y165908D01*
X37819Y165936D01*
X37795Y165969D01*
X37704Y166045D01*
X37617Y166126D01*
X37582Y166146D01*
X37550Y166171D01*
X37443Y166222D01*
X37338Y166280D01*
X37299Y166290D01*
X37263Y166307D01*
X37146Y166329D01*
X37030Y166359D01*
X36970Y166363D01*
X36950Y166367D01*
X36930Y166365D01*
X36870Y166369D01*
X24384Y166369D01*
X24266Y166354D01*
X24147Y166347D01*
X24109Y166334D01*
X24068Y166329D01*
X23958Y166286D01*
X23845Y166249D01*
X23810Y166227D01*
X23773Y166212D01*
X23677Y166143D01*
X23576Y166079D01*
X23548Y166049D01*
X23515Y166026D01*
X23439Y165934D01*
X23358Y165847D01*
X23338Y165812D01*
X23313Y165781D01*
X23262Y165673D01*
X23204Y165569D01*
X23194Y165529D01*
X23177Y165493D01*
X23155Y165376D01*
X23125Y165261D01*
X23121Y165201D01*
X23117Y165181D01*
X23119Y165160D01*
X23115Y165100D01*
X23115Y163028D01*
X21529Y159201D01*
X20706Y158377D01*
X20621Y158268D01*
X20532Y158161D01*
X20524Y158142D01*
X20511Y158126D01*
X20456Y157999D01*
X20397Y157873D01*
X20393Y157853D01*
X20385Y157834D01*
X20363Y157696D01*
X20337Y157560D01*
X20338Y157540D01*
X20335Y157520D01*
X20348Y157381D01*
X20357Y157243D01*
X20363Y157224D01*
X20365Y157204D01*
X20412Y157072D01*
X20455Y156941D01*
X20466Y156923D01*
X20472Y156904D01*
X20550Y156789D01*
X20625Y156672D01*
X20640Y156658D01*
X20651Y156641D01*
X20755Y156549D01*
X20856Y156454D01*
X20874Y156444D01*
X20889Y156431D01*
X21013Y156368D01*
X21135Y156300D01*
X21155Y156295D01*
X21173Y156286D01*
X21308Y156256D01*
X21443Y156221D01*
X21471Y156219D01*
X21483Y156216D01*
X21503Y156217D01*
X21604Y156211D01*
X28566Y156211D01*
X28606Y156216D01*
X28645Y156213D01*
X28763Y156236D01*
X28882Y156251D01*
X28919Y156265D01*
X28958Y156273D01*
X29066Y156324D01*
X29177Y156368D01*
X29210Y156391D01*
X29246Y156408D01*
X29338Y156484D01*
X29435Y156554D01*
X29460Y156585D01*
X29491Y156610D01*
X29561Y156707D01*
X29638Y156799D01*
X29654Y156835D01*
X29678Y156868D01*
X29722Y156979D01*
X29773Y157087D01*
X29781Y157126D01*
X29795Y157163D01*
X29810Y157282D01*
X29833Y157399D01*
X29830Y157439D01*
X29835Y157479D01*
X29821Y157598D01*
X29813Y157717D01*
X29801Y157755D01*
X29796Y157794D01*
X29752Y157906D01*
X29715Y158019D01*
X29694Y158053D01*
X29679Y158090D01*
X29593Y158226D01*
X28758Y159375D01*
X27977Y160907D01*
X27446Y162542D01*
X27437Y162601D01*
X35601Y162601D01*
X35601Y154423D01*
X35541Y154419D01*
X35441Y154422D01*
X35383Y154409D01*
X35323Y154405D01*
X35228Y154374D01*
X35130Y154353D01*
X35077Y154326D01*
X35021Y154307D01*
X34936Y154254D01*
X34847Y154208D01*
X34802Y154169D01*
X34752Y154137D01*
X34683Y154064D01*
X34608Y153998D01*
X34575Y153949D01*
X34534Y153905D01*
X34486Y153818D01*
X34429Y153735D01*
X34409Y153679D01*
X34380Y153627D01*
X34355Y153530D01*
X34321Y153436D01*
X34316Y153377D01*
X34301Y153319D01*
X34291Y153158D01*
X34291Y104307D01*
X34308Y104169D01*
X34321Y104031D01*
X34328Y104012D01*
X34331Y103992D01*
X34382Y103863D01*
X34429Y103732D01*
X34440Y103715D01*
X34448Y103696D01*
X34529Y103584D01*
X34607Y103468D01*
X34623Y103455D01*
X34634Y103439D01*
X34742Y103350D01*
X34846Y103258D01*
X34864Y103249D01*
X34879Y103236D01*
X35005Y103177D01*
X35129Y103113D01*
X35149Y103109D01*
X35167Y103100D01*
X35304Y103074D01*
X35439Y103044D01*
X35460Y103044D01*
X35479Y103041D01*
X35618Y103049D01*
X35757Y103053D01*
X35777Y103059D01*
X35797Y103060D01*
X35929Y103103D01*
X36063Y103142D01*
X36080Y103152D01*
X36099Y103158D01*
X36217Y103233D01*
X36337Y103303D01*
X36358Y103322D01*
X36368Y103328D01*
X36382Y103343D01*
X36457Y103410D01*
X37222Y104175D01*
X39440Y105093D01*
X41840Y105093D01*
X44058Y104175D01*
X44752Y103480D01*
X44830Y103420D01*
X44902Y103352D01*
X44955Y103322D01*
X45003Y103285D01*
X45094Y103246D01*
X45181Y103198D01*
X45239Y103183D01*
X45295Y103159D01*
X45393Y103143D01*
X45489Y103119D01*
X45589Y103112D01*
X45609Y103109D01*
X45622Y103110D01*
X45650Y103108D01*
X112592Y103108D01*
X112691Y103121D01*
X112790Y103124D01*
X112848Y103141D01*
X112908Y103148D01*
X113000Y103185D01*
X113095Y103212D01*
X113147Y103243D01*
X113204Y103265D01*
X113284Y103323D01*
X113369Y103374D01*
X113405Y103406D01*
X115544Y104292D01*
X115552Y104296D01*
X115561Y104299D01*
X115691Y104375D01*
X115820Y104449D01*
X115827Y104456D01*
X115835Y104460D01*
X115956Y104567D01*
X126187Y114797D01*
X128054Y115571D01*
X252788Y115571D01*
X252797Y115572D01*
X252806Y115571D01*
X252955Y115592D01*
X253103Y115611D01*
X253112Y115614D01*
X253121Y115615D01*
X253274Y115667D01*
X255340Y116523D01*
X257740Y116523D01*
X259806Y115667D01*
X259815Y115665D01*
X259823Y115660D01*
X259969Y115623D01*
X260113Y115583D01*
X260122Y115583D01*
X260131Y115581D01*
X260292Y115571D01*
X288348Y115571D01*
X288357Y115572D01*
X288366Y115571D01*
X288515Y115592D01*
X288663Y115611D01*
X288672Y115614D01*
X288681Y115615D01*
X288834Y115667D01*
X290900Y116523D01*
X293300Y116523D01*
X295518Y115605D01*
X297215Y113908D01*
X298133Y111690D01*
X298133Y109290D01*
X297215Y107072D01*
X295518Y105375D01*
X293300Y104457D01*
X290900Y104457D01*
X288834Y105313D01*
X288825Y105315D01*
X288817Y105320D01*
X288671Y105357D01*
X288527Y105397D01*
X288518Y105397D01*
X288509Y105399D01*
X288348Y105409D01*
X260292Y105409D01*
X260283Y105408D01*
X260274Y105409D01*
X260125Y105388D01*
X259977Y105369D01*
X259968Y105366D01*
X259959Y105365D01*
X259806Y105313D01*
X257740Y104457D01*
X255340Y104457D01*
X253274Y105313D01*
X253265Y105315D01*
X253257Y105320D01*
X253111Y105357D01*
X252967Y105397D01*
X252958Y105397D01*
X252949Y105399D01*
X252788Y105409D01*
X131695Y105409D01*
X131597Y105397D01*
X131498Y105394D01*
X131439Y105377D01*
X131379Y105369D01*
X131287Y105333D01*
X131192Y105305D01*
X131140Y105275D01*
X131084Y105252D01*
X131004Y105194D01*
X130918Y105144D01*
X130843Y105078D01*
X130826Y105066D01*
X130818Y105056D01*
X130797Y105038D01*
X124939Y99179D01*
X124866Y99085D01*
X124787Y98996D01*
X124769Y98960D01*
X124744Y98928D01*
X124697Y98819D01*
X124643Y98713D01*
X124634Y98673D01*
X124618Y98636D01*
X124599Y98518D01*
X124573Y98402D01*
X124574Y98362D01*
X124568Y98322D01*
X124579Y98203D01*
X124583Y98085D01*
X124594Y98046D01*
X124598Y98005D01*
X124638Y97893D01*
X124671Y97779D01*
X124692Y97744D01*
X124705Y97706D01*
X124772Y97608D01*
X124833Y97505D01*
X124872Y97460D01*
X124884Y97443D01*
X124899Y97430D01*
X124939Y97384D01*
X149087Y73236D01*
X149861Y71369D01*
X149861Y55822D01*
X149862Y55813D01*
X149861Y55804D01*
X149881Y55663D01*
X149883Y55626D01*
X149887Y55613D01*
X149901Y55507D01*
X149904Y55498D01*
X149905Y55489D01*
X149957Y55336D01*
X150813Y53270D01*
X150813Y50870D01*
X149895Y48652D01*
X148368Y47125D01*
X148282Y47016D01*
X148194Y46909D01*
X148185Y46890D01*
X148173Y46874D01*
X148117Y46746D01*
X148058Y46621D01*
X148055Y46601D01*
X148046Y46582D01*
X148025Y46444D01*
X147999Y46308D01*
X148000Y46288D01*
X147997Y46268D01*
X148010Y46129D01*
X148018Y45991D01*
X148025Y45972D01*
X148026Y45952D01*
X148074Y45820D01*
X148116Y45689D01*
X148127Y45671D01*
X148134Y45652D01*
X148212Y45537D01*
X148286Y45420D01*
X148301Y45406D01*
X148313Y45389D01*
X148417Y45297D01*
X148518Y45202D01*
X148536Y45192D01*
X148551Y45179D01*
X148675Y45115D01*
X148797Y45048D01*
X148816Y45043D01*
X148834Y45034D01*
X148970Y45004D01*
X149105Y44969D01*
X149133Y44967D01*
X149145Y44964D01*
X149165Y44965D01*
X149265Y44959D01*
X150611Y44959D01*
X150710Y44971D01*
X150809Y44974D01*
X150867Y44991D01*
X150927Y44999D01*
X151019Y45035D01*
X151114Y45063D01*
X151166Y45093D01*
X151223Y45116D01*
X151303Y45174D01*
X151388Y45224D01*
X151463Y45290D01*
X151480Y45302D01*
X151488Y45312D01*
X151509Y45330D01*
X174291Y68112D01*
X174364Y68206D01*
X174442Y68295D01*
X174461Y68331D01*
X174486Y68363D01*
X174533Y68473D01*
X174587Y68579D01*
X174596Y68618D01*
X174612Y68655D01*
X174631Y68773D01*
X174657Y68889D01*
X174655Y68929D01*
X174662Y68969D01*
X174651Y69088D01*
X174647Y69207D01*
X174636Y69246D01*
X174632Y69286D01*
X174592Y69398D01*
X174559Y69512D01*
X174538Y69547D01*
X174524Y69585D01*
X174457Y69684D01*
X174397Y69786D01*
X174357Y69832D01*
X174346Y69848D01*
X174330Y69862D01*
X174291Y69907D01*
X173955Y70242D01*
X173037Y72460D01*
X173037Y74860D01*
X173955Y77078D01*
X175652Y78775D01*
X177870Y79693D01*
X180270Y79693D01*
X182488Y78775D01*
X184185Y77078D01*
X185103Y74860D01*
X185103Y72460D01*
X184185Y70242D01*
X182490Y68548D01*
X182430Y68470D01*
X182362Y68398D01*
X182333Y68345D01*
X182296Y68297D01*
X182256Y68206D01*
X182208Y68119D01*
X182193Y68061D01*
X182169Y68005D01*
X182154Y67907D01*
X182129Y67811D01*
X182123Y67711D01*
X182119Y67691D01*
X182121Y67679D01*
X182119Y67651D01*
X182119Y67317D01*
X153663Y38861D01*
X119387Y38861D01*
X110043Y48205D01*
X109965Y48266D01*
X109893Y48334D01*
X109840Y48363D01*
X109792Y48400D01*
X109701Y48439D01*
X109615Y48487D01*
X109556Y48502D01*
X109500Y48526D01*
X109402Y48542D01*
X109307Y48567D01*
X109207Y48573D01*
X109186Y48576D01*
X109174Y48575D01*
X109146Y48577D01*
X106750Y48577D01*
X104532Y49495D01*
X102835Y51192D01*
X101917Y53410D01*
X101917Y55810D01*
X102835Y58028D01*
X104532Y59725D01*
X106750Y60643D01*
X109150Y60643D01*
X111368Y59725D01*
X113065Y58028D01*
X113983Y55810D01*
X113983Y53414D01*
X113996Y53316D01*
X113999Y53217D01*
X114015Y53159D01*
X114023Y53099D01*
X114060Y53006D01*
X114087Y52911D01*
X114118Y52859D01*
X114140Y52803D01*
X114198Y52723D01*
X114249Y52637D01*
X114315Y52562D01*
X114327Y52546D01*
X114336Y52538D01*
X114355Y52517D01*
X121541Y45330D01*
X121619Y45270D01*
X121691Y45202D01*
X121744Y45173D01*
X121792Y45136D01*
X121883Y45096D01*
X121970Y45048D01*
X122029Y45033D01*
X122084Y45009D01*
X122182Y44994D01*
X122278Y44969D01*
X122378Y44963D01*
X122398Y44959D01*
X122411Y44961D01*
X122439Y44959D01*
X140295Y44959D01*
X140432Y44976D01*
X140571Y44989D01*
X140590Y44996D01*
X140610Y44999D01*
X140739Y45050D01*
X140870Y45097D01*
X140887Y45108D01*
X140906Y45116D01*
X141018Y45197D01*
X141134Y45275D01*
X141147Y45291D01*
X141163Y45302D01*
X141252Y45410D01*
X141344Y45514D01*
X141353Y45532D01*
X141366Y45547D01*
X141425Y45673D01*
X141489Y45797D01*
X141493Y45817D01*
X141502Y45835D01*
X141528Y45972D01*
X141558Y46107D01*
X141558Y46128D01*
X141561Y46147D01*
X141553Y46286D01*
X141549Y46425D01*
X141543Y46445D01*
X141542Y46465D01*
X141499Y46597D01*
X141460Y46731D01*
X141450Y46748D01*
X141444Y46767D01*
X141369Y46885D01*
X141299Y47005D01*
X141280Y47026D01*
X141274Y47036D01*
X141259Y47050D01*
X141192Y47125D01*
X139665Y48652D01*
X138747Y50870D01*
X138747Y53270D01*
X139603Y55336D01*
X139605Y55345D01*
X139610Y55353D01*
X139647Y55499D01*
X139687Y55643D01*
X139687Y55652D01*
X139689Y55661D01*
X139699Y55822D01*
X139699Y67728D01*
X139687Y67826D01*
X139684Y67925D01*
X139667Y67983D01*
X139659Y68043D01*
X139623Y68135D01*
X139595Y68230D01*
X139565Y68283D01*
X139542Y68339D01*
X139484Y68419D01*
X139434Y68504D01*
X139368Y68580D01*
X139356Y68596D01*
X139346Y68604D01*
X139328Y68625D01*
X115901Y92052D01*
X115893Y92058D01*
X115887Y92065D01*
X115768Y92155D01*
X115649Y92247D01*
X115641Y92251D01*
X115633Y92256D01*
X115489Y92327D01*
X114226Y92850D01*
X114217Y92853D01*
X114209Y92857D01*
X114064Y92895D01*
X113919Y92934D01*
X113910Y92934D01*
X113901Y92937D01*
X113740Y92947D01*
X40647Y92947D01*
X40540Y92975D01*
X40396Y93014D01*
X40386Y93014D01*
X40377Y93017D01*
X40217Y93027D01*
X39440Y93027D01*
X37222Y93945D01*
X36457Y94710D01*
X36348Y94795D01*
X36241Y94884D01*
X36222Y94893D01*
X36206Y94905D01*
X36078Y94961D01*
X35953Y95020D01*
X35933Y95023D01*
X35914Y95032D01*
X35776Y95053D01*
X35640Y95079D01*
X35620Y95078D01*
X35600Y95081D01*
X35461Y95068D01*
X35323Y95060D01*
X35304Y95053D01*
X35284Y95052D01*
X35152Y95004D01*
X35021Y94962D01*
X35003Y94951D01*
X34984Y94944D01*
X34869Y94866D01*
X34752Y94792D01*
X34738Y94777D01*
X34721Y94765D01*
X34629Y94661D01*
X34534Y94560D01*
X34524Y94542D01*
X34511Y94527D01*
X34448Y94403D01*
X34380Y94281D01*
X34375Y94262D01*
X34366Y94244D01*
X34336Y94108D01*
X34301Y93973D01*
X34299Y93945D01*
X34296Y93933D01*
X34297Y93913D01*
X34291Y93813D01*
X34291Y52288D01*
X32802Y50799D01*
X16750Y50799D01*
X16632Y50784D01*
X16513Y50777D01*
X16475Y50764D01*
X16434Y50759D01*
X16324Y50716D01*
X16211Y50679D01*
X16176Y50657D01*
X16139Y50642D01*
X16043Y50573D01*
X15942Y50509D01*
X15914Y50479D01*
X15881Y50456D01*
X15805Y50364D01*
X15724Y50277D01*
X15704Y50242D01*
X15679Y50211D01*
X15628Y50103D01*
X15570Y49999D01*
X15560Y49959D01*
X15543Y49923D01*
X15521Y49806D01*
X15491Y49691D01*
X15487Y49631D01*
X15483Y49611D01*
X15484Y49600D01*
X15483Y49597D01*
X15484Y49584D01*
X15481Y49530D01*
X15481Y47329D01*
X9170Y47329D01*
X9052Y47314D01*
X8933Y47307D01*
X8895Y47294D01*
X8855Y47289D01*
X8744Y47246D01*
X8631Y47209D01*
X8597Y47187D01*
X8559Y47172D01*
X8463Y47103D01*
X8362Y47039D01*
X8334Y47009D01*
X8302Y46986D01*
X8226Y46894D01*
X8144Y46807D01*
X8125Y46772D01*
X8099Y46741D01*
X8048Y46633D01*
X7991Y46529D01*
X7981Y46489D01*
X7963Y46453D01*
X7941Y46336D01*
X7911Y46221D01*
X7907Y46161D01*
X7904Y46141D01*
X7905Y46120D01*
X7901Y46060D01*
X7901Y43600D01*
X7916Y43482D01*
X7923Y43363D01*
X7936Y43325D01*
X7941Y43284D01*
X7985Y43174D01*
X8021Y43061D01*
X8043Y43026D01*
X8058Y42989D01*
X8128Y42892D01*
X8191Y42792D01*
X8221Y42764D01*
X8245Y42731D01*
X8336Y42655D01*
X8423Y42574D01*
X8458Y42554D01*
X8490Y42529D01*
X8597Y42478D01*
X8702Y42420D01*
X8741Y42410D01*
X8777Y42393D01*
X8894Y42371D01*
X9010Y42341D01*
X9070Y42337D01*
X9090Y42333D01*
X9110Y42335D01*
X9170Y42331D01*
X15481Y42331D01*
X15481Y39496D01*
X15308Y38849D01*
X14973Y38270D01*
X14500Y37797D01*
X14251Y37653D01*
X14151Y37577D01*
X14047Y37507D01*
X14025Y37481D01*
X13998Y37461D01*
X13920Y37362D01*
X13836Y37268D01*
X13821Y37238D01*
X13800Y37212D01*
X13749Y37097D01*
X13692Y36985D01*
X13684Y36952D01*
X13671Y36921D01*
X13650Y36797D01*
X13622Y36675D01*
X13623Y36641D01*
X13618Y36608D01*
X13628Y36482D01*
X13632Y36357D01*
X13641Y36324D01*
X13644Y36291D01*
X13685Y36172D01*
X13720Y36051D01*
X13737Y36022D01*
X13748Y35990D01*
X13818Y35886D01*
X13882Y35777D01*
X13914Y35741D01*
X13924Y35725D01*
X13940Y35711D01*
X13988Y35656D01*
X14973Y34672D01*
X14973Y33148D01*
X14988Y33030D01*
X14995Y32911D01*
X15008Y32873D01*
X15013Y32832D01*
X15056Y32722D01*
X15093Y32609D01*
X15115Y32574D01*
X15130Y32537D01*
X15199Y32441D01*
X15263Y32340D01*
X15293Y32312D01*
X15316Y32279D01*
X15408Y32203D01*
X15495Y32122D01*
X15530Y32102D01*
X15561Y32077D01*
X15669Y32026D01*
X15773Y31968D01*
X15813Y31958D01*
X15849Y31941D01*
X15966Y31919D01*
X16081Y31889D01*
X16141Y31885D01*
X16161Y31881D01*
X16182Y31883D01*
X16242Y31879D01*
X39638Y31879D01*
X39756Y31894D01*
X39875Y31901D01*
X39913Y31914D01*
X39954Y31919D01*
X40064Y31962D01*
X40177Y31999D01*
X40212Y32021D01*
X40249Y32036D01*
X40345Y32105D01*
X40446Y32169D01*
X40474Y32199D01*
X40507Y32222D01*
X40583Y32314D01*
X40664Y32401D01*
X40684Y32436D01*
X40709Y32467D01*
X40760Y32575D01*
X40818Y32679D01*
X40828Y32719D01*
X40845Y32755D01*
X40867Y32872D01*
X40897Y32987D01*
X40901Y33047D01*
X40905Y33067D01*
X40903Y33088D01*
X40907Y33148D01*
X40907Y34672D01*
X41892Y35656D01*
X41969Y35756D01*
X42051Y35851D01*
X42066Y35881D01*
X42087Y35908D01*
X42137Y36023D01*
X42193Y36136D01*
X42200Y36169D01*
X42213Y36200D01*
X42233Y36324D01*
X42259Y36447D01*
X42258Y36480D01*
X42263Y36514D01*
X42251Y36639D01*
X42246Y36764D01*
X42236Y36797D01*
X42233Y36830D01*
X42191Y36949D01*
X42154Y37069D01*
X42137Y37098D01*
X42126Y37130D01*
X42055Y37234D01*
X41990Y37341D01*
X41966Y37365D01*
X41947Y37393D01*
X41853Y37476D01*
X41763Y37564D01*
X41722Y37591D01*
X41709Y37603D01*
X41689Y37613D01*
X41629Y37653D01*
X41380Y37797D01*
X40907Y38270D01*
X40572Y38849D01*
X40399Y39496D01*
X40399Y42331D01*
X46710Y42331D01*
X46828Y42346D01*
X46947Y42353D01*
X46985Y42365D01*
X47025Y42371D01*
X47136Y42414D01*
X47249Y42451D01*
X47283Y42473D01*
X47321Y42488D01*
X47417Y42557D01*
X47518Y42621D01*
X47546Y42651D01*
X47578Y42674D01*
X47654Y42766D01*
X47736Y42853D01*
X47755Y42888D01*
X47781Y42919D01*
X47832Y43027D01*
X47889Y43131D01*
X47899Y43171D01*
X47917Y43207D01*
X47937Y43314D01*
X47941Y43284D01*
X47985Y43174D01*
X48021Y43061D01*
X48043Y43026D01*
X48058Y42989D01*
X48128Y42892D01*
X48191Y42792D01*
X48221Y42764D01*
X48245Y42731D01*
X48336Y42655D01*
X48423Y42574D01*
X48458Y42554D01*
X48490Y42529D01*
X48597Y42478D01*
X48702Y42420D01*
X48741Y42410D01*
X48777Y42393D01*
X48894Y42371D01*
X49010Y42341D01*
X49070Y42337D01*
X49090Y42333D01*
X49110Y42335D01*
X49170Y42331D01*
X55481Y42331D01*
X55481Y39496D01*
X55308Y38849D01*
X54973Y38270D01*
X54500Y37797D01*
X54251Y37653D01*
X54151Y37577D01*
X54047Y37507D01*
X54025Y37481D01*
X53998Y37461D01*
X53920Y37362D01*
X53836Y37268D01*
X53821Y37238D01*
X53800Y37212D01*
X53749Y37097D01*
X53692Y36985D01*
X53684Y36952D01*
X53671Y36921D01*
X53650Y36797D01*
X53622Y36675D01*
X53623Y36641D01*
X53618Y36608D01*
X53628Y36482D01*
X53632Y36357D01*
X53641Y36324D01*
X53644Y36291D01*
X53685Y36172D01*
X53720Y36051D01*
X53737Y36022D01*
X53748Y35990D01*
X53818Y35886D01*
X53882Y35777D01*
X53914Y35741D01*
X53924Y35725D01*
X53940Y35711D01*
X53988Y35656D01*
X54899Y34746D01*
X54993Y34673D01*
X55082Y34594D01*
X55118Y34576D01*
X55150Y34551D01*
X55259Y34504D01*
X55365Y34450D01*
X55405Y34441D01*
X55442Y34425D01*
X55560Y34406D01*
X55676Y34380D01*
X55716Y34381D01*
X55756Y34375D01*
X55875Y34386D01*
X55993Y34390D01*
X56032Y34401D01*
X56073Y34405D01*
X56185Y34445D01*
X56299Y34478D01*
X56334Y34499D01*
X56372Y34512D01*
X56470Y34579D01*
X56573Y34640D01*
X56618Y34679D01*
X56635Y34691D01*
X56648Y34706D01*
X56694Y34746D01*
X57542Y35595D01*
X59760Y36513D01*
X62160Y36513D01*
X64378Y35595D01*
X66075Y33898D01*
X66993Y31680D01*
X66993Y29280D01*
X66113Y27156D01*
X66100Y27108D01*
X66079Y27063D01*
X66058Y26955D01*
X66029Y26849D01*
X66029Y26799D01*
X66019Y26751D01*
X66026Y26641D01*
X66024Y26531D01*
X66036Y26483D01*
X66039Y26433D01*
X66073Y26329D01*
X66099Y26222D01*
X66122Y26178D01*
X66137Y26131D01*
X66196Y26038D01*
X66247Y25941D01*
X66281Y25904D01*
X66307Y25862D01*
X66387Y25787D01*
X66461Y25705D01*
X66503Y25678D01*
X66539Y25644D01*
X66635Y25591D01*
X66727Y25531D01*
X66774Y25514D01*
X66817Y25490D01*
X66924Y25463D01*
X67028Y25427D01*
X67077Y25423D01*
X67125Y25411D01*
X67286Y25401D01*
X308610Y25401D01*
X308728Y25416D01*
G37*
%LPC*%
G36*
X40599Y162601D02*
X40599Y162601D01*
X48763Y162601D01*
X48754Y162542D01*
X48223Y160907D01*
X47442Y159375D01*
X46431Y157984D01*
X45216Y156769D01*
X43825Y155758D01*
X42293Y154977D01*
X40658Y154446D01*
X40599Y154437D01*
X40599Y162601D01*
G37*
%LPD*%
%LPC*%
G36*
X50439Y47329D02*
X50439Y47329D01*
X50439Y52371D01*
X53274Y52371D01*
X53921Y52198D01*
X54500Y51863D01*
X54973Y51390D01*
X55308Y50811D01*
X55481Y50164D01*
X55481Y47329D01*
X50439Y47329D01*
G37*
%LPD*%
%LPC*%
G36*
X40399Y47329D02*
X40399Y47329D01*
X40399Y50164D01*
X40572Y50811D01*
X40907Y51390D01*
X41380Y51863D01*
X41959Y52198D01*
X42606Y52371D01*
X45441Y52371D01*
X45441Y47329D01*
X40399Y47329D01*
G37*
%LPD*%
D10*
X7940Y28830D03*
X7940Y44830D03*
X47940Y44830D03*
X47940Y28830D03*
D11*
X12700Y165100D03*
X38100Y165100D03*
X63500Y165100D03*
X88900Y165100D03*
X114300Y165100D03*
X139700Y165100D03*
X165100Y165100D03*
X190500Y165100D03*
X215900Y165100D03*
X241300Y165100D03*
X266700Y165100D03*
X292100Y165100D03*
X317500Y165100D03*
X342900Y165100D03*
X342900Y12700D03*
X317500Y12700D03*
X292100Y12700D03*
X266700Y12700D03*
X241300Y12700D03*
X215900Y12700D03*
X190500Y12700D03*
X165100Y12700D03*
X139700Y12700D03*
X114300Y12700D03*
X88900Y12700D03*
X63500Y12700D03*
X38100Y12700D03*
X12700Y12700D03*
D12*
X7940Y44830D02*
X47940Y44830D01*
D13*
X254000Y68580D03*
D12*
X12700Y12700D02*
X7940Y17460D01*
X7940Y28830D01*
X47940Y28830D01*
X48320Y29210D01*
X59690Y29210D02*
X60960Y30480D01*
X59690Y29210D02*
X48320Y29210D01*
D13*
X60960Y30480D03*
X107950Y54610D03*
X179070Y73660D03*
D12*
X179070Y68580D01*
X152400Y41910D01*
X120650Y41910D02*
X107950Y54610D01*
X120650Y41910D02*
X152400Y41910D01*
D13*
X256540Y110490D03*
D14*
X292100Y110490D01*
D13*
X292100Y110490D03*
D14*
X116856Y98282D02*
X116602Y98028D01*
X129065Y110490D02*
X256540Y110490D01*
X116856Y98282D02*
X116840Y98298D01*
X144780Y70358D02*
X144780Y52070D01*
D13*
X144780Y52070D03*
X40640Y99060D03*
D14*
X41672Y98028D01*
X116602Y98028D01*
D13*
X116840Y98298D03*
D14*
X116873Y98298D01*
X129065Y110490D01*
X116840Y98298D02*
X144780Y70358D01*
M02*
