M48
;GenerationSoftware,Autodesk,EAGLE,9.6.2*%
;CreationDate,2021-11-06T02:44:01Z*%
FMAT,2
ICI,OFF
METRIC,TZ,000.000
T2C0.394
T1C1.000
%
G90
M71
T1
X24130Y16510
X21590Y1270
X19050Y1270
X16510Y1270
X13970Y1270
X11430Y1270
X8890Y1270
X6350Y1270
X3810Y1270
X1270Y16510
X3810Y16510
X6350Y16510
X8890Y16510
X11430Y16510
X13970Y16510
X16510Y16510
X19050Y16510
X21590Y16510
X1270Y1270
X26670Y16510
X29210Y16510
X31750Y16510
X34290Y16510
X34290Y1270
X31750Y1270
X29210Y1270
X26670Y1270
X24130Y1270
T2
X6096Y3048
X10795Y5461
X17907Y7366
X25654Y11049
X29210Y11049
X14478Y5207
X4064Y9906
X11684Y9830
X25400Y6858
M30