G04 EAGLE Gerber RS-274X export*
G75*
%MOMM*%
%FSLAX34Y34*%
%LPD*%
%INSilkscreen Top*%
%IPPOS*%
%AMOC8*
5,1,8,0,0,1.08239X$1,22.5*%
G01*
%ADD10C,0.127000*%
%ADD11C,0.203200*%
%ADD12C,0.152400*%


D10*
X48940Y22830D02*
X6940Y22830D01*
X6940Y50830D01*
X48940Y50830D01*
X48940Y22830D01*
X38940Y38830D02*
X38938Y38982D01*
X38932Y39134D01*
X38923Y39286D01*
X38909Y39437D01*
X38892Y39588D01*
X38871Y39739D01*
X38846Y39889D01*
X38817Y40038D01*
X38785Y40186D01*
X38748Y40334D01*
X38709Y40481D01*
X38665Y40626D01*
X38617Y40771D01*
X38567Y40914D01*
X38512Y41056D01*
X38454Y41196D01*
X38392Y41335D01*
X38327Y41472D01*
X38258Y41608D01*
X38186Y41742D01*
X38111Y41874D01*
X38032Y42004D01*
X37950Y42132D01*
X37865Y42258D01*
X37776Y42381D01*
X37685Y42503D01*
X37590Y42622D01*
X37493Y42738D01*
X37392Y42852D01*
X37289Y42964D01*
X37183Y43073D01*
X37074Y43179D01*
X36962Y43282D01*
X36848Y43383D01*
X36732Y43480D01*
X36613Y43575D01*
X36491Y43666D01*
X36368Y43755D01*
X36242Y43840D01*
X36114Y43922D01*
X35984Y44001D01*
X35852Y44076D01*
X35718Y44148D01*
X35582Y44217D01*
X35445Y44282D01*
X35306Y44344D01*
X35166Y44402D01*
X35024Y44457D01*
X34881Y44507D01*
X34736Y44555D01*
X34591Y44599D01*
X34444Y44638D01*
X34296Y44675D01*
X34148Y44707D01*
X33999Y44736D01*
X33849Y44761D01*
X33698Y44782D01*
X33547Y44799D01*
X33396Y44813D01*
X33244Y44822D01*
X33092Y44828D01*
X32940Y44830D01*
X38940Y38830D02*
X38940Y34830D01*
X38938Y34678D01*
X38932Y34526D01*
X38923Y34374D01*
X38909Y34223D01*
X38892Y34072D01*
X38871Y33921D01*
X38846Y33771D01*
X38817Y33622D01*
X38785Y33474D01*
X38748Y33326D01*
X38709Y33179D01*
X38665Y33034D01*
X38617Y32889D01*
X38567Y32746D01*
X38512Y32604D01*
X38454Y32464D01*
X38392Y32325D01*
X38327Y32188D01*
X38258Y32052D01*
X38186Y31918D01*
X38111Y31786D01*
X38032Y31656D01*
X37950Y31528D01*
X37865Y31402D01*
X37776Y31279D01*
X37685Y31157D01*
X37590Y31038D01*
X37493Y30922D01*
X37392Y30808D01*
X37289Y30696D01*
X37183Y30587D01*
X37074Y30481D01*
X36962Y30378D01*
X36848Y30277D01*
X36732Y30180D01*
X36613Y30085D01*
X36491Y29994D01*
X36368Y29905D01*
X36242Y29820D01*
X36114Y29738D01*
X35984Y29659D01*
X35852Y29584D01*
X35718Y29512D01*
X35582Y29443D01*
X35445Y29378D01*
X35306Y29316D01*
X35166Y29258D01*
X35024Y29203D01*
X34881Y29153D01*
X34736Y29105D01*
X34591Y29061D01*
X34444Y29022D01*
X34296Y28985D01*
X34148Y28953D01*
X33999Y28924D01*
X33849Y28899D01*
X33698Y28878D01*
X33547Y28861D01*
X33396Y28847D01*
X33244Y28838D01*
X33092Y28832D01*
X32940Y28830D01*
X22940Y28830D01*
X22788Y28832D01*
X22636Y28838D01*
X22484Y28847D01*
X22333Y28861D01*
X22182Y28878D01*
X22031Y28899D01*
X21881Y28924D01*
X21732Y28953D01*
X21584Y28985D01*
X21436Y29022D01*
X21289Y29061D01*
X21144Y29105D01*
X20999Y29153D01*
X20856Y29203D01*
X20714Y29258D01*
X20574Y29316D01*
X20435Y29378D01*
X20298Y29443D01*
X20162Y29512D01*
X20028Y29584D01*
X19896Y29659D01*
X19766Y29738D01*
X19638Y29820D01*
X19512Y29905D01*
X19389Y29994D01*
X19267Y30085D01*
X19148Y30180D01*
X19032Y30277D01*
X18918Y30378D01*
X18806Y30481D01*
X18697Y30587D01*
X18591Y30696D01*
X18488Y30808D01*
X18387Y30922D01*
X18290Y31038D01*
X18195Y31157D01*
X18104Y31279D01*
X18015Y31402D01*
X17930Y31528D01*
X17848Y31656D01*
X17769Y31786D01*
X17694Y31918D01*
X17622Y32052D01*
X17553Y32188D01*
X17488Y32325D01*
X17426Y32464D01*
X17368Y32604D01*
X17313Y32746D01*
X17263Y32889D01*
X17215Y33034D01*
X17171Y33179D01*
X17132Y33326D01*
X17095Y33474D01*
X17063Y33622D01*
X17034Y33771D01*
X17009Y33921D01*
X16988Y34072D01*
X16971Y34223D01*
X16957Y34374D01*
X16948Y34526D01*
X16942Y34678D01*
X16940Y34830D01*
X16940Y38830D01*
X16942Y38982D01*
X16948Y39134D01*
X16957Y39286D01*
X16971Y39437D01*
X16988Y39588D01*
X17009Y39739D01*
X17034Y39889D01*
X17063Y40038D01*
X17095Y40186D01*
X17132Y40334D01*
X17171Y40481D01*
X17215Y40626D01*
X17263Y40771D01*
X17313Y40914D01*
X17368Y41056D01*
X17426Y41196D01*
X17488Y41335D01*
X17553Y41472D01*
X17622Y41608D01*
X17694Y41742D01*
X17769Y41874D01*
X17848Y42004D01*
X17930Y42132D01*
X18015Y42258D01*
X18104Y42381D01*
X18195Y42503D01*
X18290Y42622D01*
X18387Y42738D01*
X18488Y42852D01*
X18591Y42964D01*
X18697Y43073D01*
X18806Y43179D01*
X18918Y43282D01*
X19032Y43383D01*
X19148Y43480D01*
X19267Y43575D01*
X19389Y43666D01*
X19512Y43755D01*
X19638Y43840D01*
X19766Y43922D01*
X19896Y44001D01*
X20028Y44076D01*
X20162Y44148D01*
X20298Y44217D01*
X20435Y44282D01*
X20574Y44344D01*
X20714Y44402D01*
X20856Y44457D01*
X20999Y44507D01*
X21144Y44555D01*
X21289Y44599D01*
X21436Y44638D01*
X21584Y44675D01*
X21732Y44707D01*
X21881Y44736D01*
X22031Y44761D01*
X22182Y44782D01*
X22333Y44799D01*
X22484Y44813D01*
X22636Y44822D01*
X22788Y44828D01*
X22940Y44830D01*
X32940Y44830D01*
D11*
X54610Y34420D02*
X354610Y34420D01*
X54610Y34420D02*
X54610Y147670D01*
X354610Y147670D01*
X354610Y34420D01*
D12*
X210630Y65054D02*
X208427Y65054D01*
X207325Y63952D01*
X207325Y59546D01*
X208427Y58444D01*
X210630Y58444D01*
X211732Y59546D01*
X211732Y63952D01*
X210630Y65054D01*
X214810Y65054D02*
X214810Y58444D01*
X219216Y58444D01*
X222294Y65054D02*
X226700Y65054D01*
X222294Y65054D02*
X222294Y58444D01*
X226700Y58444D01*
X224497Y61749D02*
X222294Y61749D01*
X229778Y65054D02*
X229778Y58444D01*
X233083Y58444D01*
X234184Y59546D01*
X234184Y63952D01*
X233083Y65054D01*
X229778Y65054D01*
M02*
