G04 EAGLE Gerber RS-274X export*
G75*
%MOMM*%
%FSLAX34Y34*%
%LPD*%
%INSilkscreen Bottom*%
%IPPOS*%
%AMOC8*
5,1,8,0,0,1.08239X$1,22.5*%
G01*
%ADD10C,0.127000*%
%ADD11C,0.203200*%
%ADD12C,0.101600*%
%ADD13C,0.304800*%
%ADD14C,0.152400*%


D10*
X342265Y98261D02*
X339299Y101227D01*
X339299Y92329D01*
X342265Y92329D02*
X336333Y92329D01*
X332909Y92329D02*
X326978Y92329D01*
X332909Y92329D02*
X326978Y98261D01*
X326978Y99744D01*
X328461Y101227D01*
X331426Y101227D01*
X332909Y99744D01*
X323554Y99744D02*
X322071Y101227D01*
X319105Y101227D01*
X317622Y99744D01*
X317622Y98261D01*
X319105Y96778D01*
X317622Y95295D01*
X317622Y93812D01*
X319105Y92329D01*
X322071Y92329D01*
X323554Y93812D01*
X323554Y95295D01*
X322071Y96778D01*
X323554Y98261D01*
X323554Y99744D01*
X322071Y96778D02*
X319105Y96778D01*
X314199Y98261D02*
X308267Y92329D01*
X314199Y92329D02*
X308267Y98261D01*
X304844Y99744D02*
X303361Y101227D01*
X300395Y101227D01*
X298912Y99744D01*
X298912Y98261D01*
X300395Y96778D01*
X301878Y96778D01*
X300395Y96778D02*
X298912Y95295D01*
X298912Y93812D01*
X300395Y92329D01*
X303361Y92329D01*
X304844Y93812D01*
X295489Y92329D02*
X289557Y92329D01*
X295489Y92329D02*
X289557Y98261D01*
X289557Y99744D01*
X291040Y101227D01*
X294006Y101227D01*
X295489Y99744D01*
X276778Y101227D02*
X276778Y92329D01*
X273812Y98261D02*
X276778Y101227D01*
X273812Y98261D02*
X270847Y101227D01*
X270847Y92329D01*
X265940Y92329D02*
X262974Y92329D01*
X261491Y93812D01*
X261491Y96778D01*
X262974Y98261D01*
X265940Y98261D01*
X267423Y96778D01*
X267423Y93812D01*
X265940Y92329D01*
X258068Y92329D02*
X258068Y98261D01*
X253619Y98261D01*
X252136Y96778D01*
X252136Y92329D01*
X247230Y92329D02*
X244264Y92329D01*
X242781Y93812D01*
X242781Y96778D01*
X244264Y98261D01*
X247230Y98261D01*
X248713Y96778D01*
X248713Y93812D01*
X247230Y92329D01*
X237875Y98261D02*
X233426Y98261D01*
X237875Y98261D02*
X239358Y96778D01*
X239358Y93812D01*
X237875Y92329D01*
X233426Y92329D01*
X230002Y92329D02*
X230002Y101227D01*
X228519Y98261D02*
X230002Y96778D01*
X228519Y98261D02*
X225554Y98261D01*
X224071Y96778D01*
X224071Y92329D01*
X220647Y92329D02*
X220647Y98261D01*
X220647Y95295D02*
X217681Y98261D01*
X216198Y98261D01*
X211368Y92329D02*
X208402Y92329D01*
X206919Y93812D01*
X206919Y96778D01*
X208402Y98261D01*
X211368Y98261D01*
X212851Y96778D01*
X212851Y93812D01*
X211368Y92329D01*
X203496Y92329D02*
X203496Y98261D01*
X202013Y98261D01*
X200530Y96778D01*
X200530Y92329D01*
X200530Y96778D02*
X199047Y98261D01*
X197564Y96778D01*
X197564Y92329D01*
X192658Y92329D02*
X189692Y92329D01*
X192658Y92329D02*
X194141Y93812D01*
X194141Y96778D01*
X192658Y98261D01*
X189692Y98261D01*
X188209Y96778D01*
X188209Y95295D01*
X194141Y95295D01*
X319885Y88019D02*
X322851Y88019D01*
X324334Y86536D01*
X324334Y80604D01*
X322851Y79121D01*
X319885Y79121D01*
X318402Y80604D01*
X318402Y86536D01*
X319885Y88019D01*
X314979Y88019D02*
X314979Y79121D01*
X309047Y79121D01*
X305623Y88019D02*
X299692Y88019D01*
X305623Y88019D02*
X305623Y79121D01*
X299692Y79121D01*
X302658Y83570D02*
X305623Y83570D01*
X296268Y88019D02*
X296268Y79121D01*
X291819Y79121D01*
X290337Y80604D01*
X290337Y86536D01*
X291819Y88019D01*
X296268Y88019D01*
X277558Y88019D02*
X277558Y79121D01*
X277558Y88019D02*
X273109Y88019D01*
X271626Y86536D01*
X271626Y85053D01*
X273109Y83570D01*
X271626Y82087D01*
X271626Y80604D01*
X273109Y79121D01*
X277558Y79121D01*
X277558Y83570D02*
X273109Y83570D01*
X268203Y85053D02*
X266720Y85053D01*
X266720Y79121D01*
X268203Y79121D02*
X265237Y79121D01*
X266720Y88019D02*
X266720Y89502D01*
X260483Y86536D02*
X260483Y80604D01*
X259000Y79121D01*
X259000Y85053D02*
X261966Y85053D01*
X255729Y79121D02*
X251280Y79121D01*
X249797Y80604D01*
X251280Y82087D01*
X254246Y82087D01*
X255729Y83570D01*
X254246Y85053D01*
X249797Y85053D01*
X246374Y85053D02*
X246374Y80604D01*
X244891Y79121D01*
X240442Y79121D01*
X240442Y77638D02*
X240442Y85053D01*
X240442Y77638D02*
X241925Y76155D01*
X243408Y76155D01*
X237019Y79121D02*
X237019Y88019D01*
X234053Y82087D02*
X237019Y79121D01*
X234053Y82087D02*
X231087Y79121D01*
X231087Y88019D01*
X227664Y85053D02*
X226181Y85053D01*
X226181Y79121D01*
X227664Y79121D02*
X224698Y79121D01*
X226181Y88019D02*
X226181Y89502D01*
X221427Y85053D02*
X221427Y79121D01*
X221427Y85053D02*
X216978Y85053D01*
X215495Y83570D01*
X215495Y79121D01*
X209106Y76155D02*
X207623Y76155D01*
X206140Y77638D01*
X206140Y85053D01*
X210589Y85053D01*
X212072Y83570D01*
X212072Y80604D01*
X210589Y79121D01*
X206140Y79121D01*
D11*
X333114Y42936D02*
X333114Y30734D01*
X333114Y36835D02*
X324980Y36835D01*
X324980Y42936D02*
X324980Y30734D01*
X320017Y42936D02*
X311882Y42936D01*
X320017Y42936D02*
X320017Y30734D01*
X311882Y30734D01*
X315950Y36835D02*
X320017Y36835D01*
X306920Y42936D02*
X298785Y30734D01*
X306920Y30734D02*
X298785Y42936D01*
X289755Y42936D02*
X289755Y30734D01*
X285688Y42936D02*
X293823Y42936D01*
X280725Y42936D02*
X280725Y30734D01*
X280725Y36835D02*
X272591Y36835D01*
X272591Y42936D02*
X272591Y30734D01*
X267628Y30734D02*
X267628Y38869D01*
X263561Y42936D01*
X259493Y38869D01*
X259493Y30734D01*
X259493Y36835D02*
X267628Y36835D01*
X250463Y30734D02*
X250463Y42936D01*
X246396Y42936D02*
X254531Y42936D01*
D12*
X48263Y27455D02*
X48263Y22709D01*
X50636Y25082D02*
X45890Y25082D01*
X51822Y31380D02*
X51822Y33752D01*
X51822Y31380D02*
X50636Y30193D01*
X45890Y30193D01*
X44704Y31380D01*
X44704Y33752D01*
X45890Y34939D01*
X50636Y34939D01*
X51822Y33752D01*
X51822Y37678D02*
X44704Y37678D01*
X44704Y42423D01*
X51822Y45162D02*
X51822Y49907D01*
X51822Y45162D02*
X44704Y45162D01*
X44704Y49907D01*
X48263Y47534D02*
X48263Y45162D01*
X51822Y52646D02*
X44704Y52646D01*
X44704Y56205D01*
X45890Y57391D01*
X50636Y57391D01*
X51822Y56205D01*
X51822Y52646D01*
X43518Y60130D02*
X43518Y64875D01*
X44704Y67614D02*
X51822Y67614D01*
X51822Y71173D01*
X50636Y72360D01*
X48263Y72360D01*
X47077Y71173D01*
X47077Y67614D01*
X47077Y69987D02*
X44704Y72360D01*
X51822Y78657D02*
X50636Y79844D01*
X51822Y78657D02*
X51822Y76285D01*
X50636Y75098D01*
X49449Y75098D01*
X48263Y76285D01*
X48263Y78657D01*
X47077Y79844D01*
X45890Y79844D01*
X44704Y78657D01*
X44704Y76285D01*
X45890Y75098D01*
X44704Y84955D02*
X51822Y84955D01*
X51822Y82583D02*
X51822Y87328D01*
D13*
X121920Y135890D02*
X132080Y135890D01*
D14*
X117862Y134877D02*
X116760Y135978D01*
X117862Y134877D02*
X117862Y132674D01*
X116760Y131572D01*
X112354Y131572D01*
X111252Y132674D01*
X111252Y134877D01*
X112354Y135978D01*
X117862Y139056D02*
X117862Y143463D01*
X117862Y139056D02*
X114557Y139056D01*
X115658Y141259D01*
X115658Y142361D01*
X114557Y143463D01*
X112354Y143463D01*
X111252Y142361D01*
X111252Y140158D01*
X112354Y139056D01*
D13*
X147320Y135890D02*
X157480Y135890D01*
D14*
X170100Y135978D02*
X171202Y134877D01*
X171202Y132674D01*
X170100Y131572D01*
X165694Y131572D01*
X164592Y132674D01*
X164592Y134877D01*
X165694Y135978D01*
X164592Y142361D02*
X171202Y142361D01*
X167897Y139056D01*
X167897Y143463D01*
D13*
X181610Y40640D02*
X191770Y40640D01*
D14*
X202612Y29570D02*
X203714Y28469D01*
X203714Y26265D01*
X202612Y25164D01*
X198206Y25164D01*
X197104Y26265D01*
X197104Y28469D01*
X198206Y29570D01*
X201510Y32648D02*
X203714Y34851D01*
X197104Y34851D01*
X197104Y32648D02*
X197104Y37054D01*
D13*
X217932Y45466D02*
X217932Y55626D01*
D14*
X220384Y66976D02*
X221485Y68078D01*
X223688Y68078D01*
X224790Y66976D01*
X224790Y62570D01*
X223688Y61468D01*
X221485Y61468D01*
X220384Y62570D01*
X217306Y66976D02*
X216204Y68078D01*
X214001Y68078D01*
X212899Y66976D01*
X212899Y65874D01*
X214001Y64773D01*
X215103Y64773D01*
X214001Y64773D02*
X212899Y63671D01*
X212899Y62570D01*
X214001Y61468D01*
X216204Y61468D01*
X217306Y62570D01*
D13*
X146050Y60960D02*
X146050Y71120D01*
D14*
X172632Y68500D02*
X173733Y69602D01*
X175936Y69602D01*
X177038Y68500D01*
X177038Y64094D01*
X175936Y62992D01*
X173733Y62992D01*
X172632Y64094D01*
X169554Y62992D02*
X165147Y62992D01*
X165147Y67398D02*
X169554Y62992D01*
X165147Y67398D02*
X165147Y68500D01*
X166249Y69602D01*
X168452Y69602D01*
X169554Y68500D01*
D13*
X146050Y78740D02*
X146050Y88900D01*
D14*
X175768Y86112D02*
X175768Y79502D01*
X175768Y86112D02*
X172463Y86112D01*
X171362Y85010D01*
X171362Y82807D01*
X172463Y81705D01*
X175768Y81705D01*
X173565Y81705D02*
X171362Y79502D01*
X168284Y83908D02*
X166081Y86112D01*
X166081Y79502D01*
X168284Y79502D02*
X163877Y79502D01*
D13*
X287020Y133350D02*
X297180Y133350D01*
D14*
X302514Y125494D02*
X309124Y125494D01*
X309124Y128799D01*
X308022Y129900D01*
X305819Y129900D01*
X304717Y128799D01*
X304717Y125494D01*
X304717Y127697D02*
X302514Y129900D01*
X308022Y132978D02*
X309124Y134079D01*
X309124Y136283D01*
X308022Y137384D01*
X306920Y137384D01*
X305819Y136283D01*
X305819Y135181D01*
X305819Y136283D02*
X304717Y137384D01*
X303616Y137384D01*
X302514Y136283D01*
X302514Y134079D01*
X303616Y132978D01*
D13*
X271780Y133350D02*
X261620Y133350D01*
D14*
X255784Y125494D02*
X249174Y125494D01*
X255784Y125494D02*
X255784Y128799D01*
X254682Y129900D01*
X252479Y129900D01*
X251377Y128799D01*
X251377Y125494D01*
X251377Y127697D02*
X249174Y129900D01*
X249174Y136283D02*
X255784Y136283D01*
X252479Y132978D01*
X252479Y137384D01*
D11*
X107950Y39370D02*
X107950Y29210D01*
D14*
X116441Y42799D02*
X116441Y49409D01*
X113137Y49409D01*
X112035Y48307D01*
X112035Y46104D01*
X113137Y45002D01*
X116441Y45002D01*
X114238Y45002D02*
X112035Y42799D01*
X108957Y42799D02*
X104551Y42799D01*
X108957Y42799D02*
X104551Y47205D01*
X104551Y48307D01*
X105652Y49409D01*
X107856Y49409D01*
X108957Y48307D01*
D11*
X68580Y54610D02*
X68580Y26670D01*
X88900Y54610D02*
X88898Y54710D01*
X88892Y54809D01*
X88882Y54909D01*
X88869Y55007D01*
X88851Y55106D01*
X88830Y55203D01*
X88805Y55299D01*
X88776Y55395D01*
X88743Y55489D01*
X88707Y55582D01*
X88667Y55673D01*
X88623Y55763D01*
X88576Y55851D01*
X88526Y55937D01*
X88472Y56021D01*
X88415Y56103D01*
X88355Y56182D01*
X88291Y56260D01*
X88225Y56334D01*
X88156Y56406D01*
X88084Y56475D01*
X88010Y56541D01*
X87932Y56605D01*
X87853Y56665D01*
X87771Y56722D01*
X87687Y56776D01*
X87601Y56826D01*
X87513Y56873D01*
X87423Y56917D01*
X87332Y56957D01*
X87239Y56993D01*
X87145Y57026D01*
X87049Y57055D01*
X86953Y57080D01*
X86856Y57101D01*
X86757Y57119D01*
X86659Y57132D01*
X86559Y57142D01*
X86460Y57148D01*
X86360Y57150D01*
X88900Y26670D02*
X88898Y26570D01*
X88892Y26471D01*
X88882Y26371D01*
X88869Y26273D01*
X88851Y26174D01*
X88830Y26077D01*
X88805Y25981D01*
X88776Y25885D01*
X88743Y25791D01*
X88707Y25698D01*
X88667Y25607D01*
X88623Y25517D01*
X88576Y25429D01*
X88526Y25343D01*
X88472Y25259D01*
X88415Y25177D01*
X88355Y25098D01*
X88291Y25020D01*
X88225Y24946D01*
X88156Y24874D01*
X88084Y24805D01*
X88010Y24739D01*
X87932Y24675D01*
X87853Y24615D01*
X87771Y24558D01*
X87687Y24504D01*
X87601Y24454D01*
X87513Y24407D01*
X87423Y24363D01*
X87332Y24323D01*
X87239Y24287D01*
X87145Y24254D01*
X87049Y24225D01*
X86953Y24200D01*
X86856Y24179D01*
X86757Y24161D01*
X86659Y24148D01*
X86559Y24138D01*
X86460Y24132D01*
X86360Y24130D01*
X71120Y24130D02*
X71020Y24132D01*
X70921Y24138D01*
X70821Y24148D01*
X70723Y24161D01*
X70624Y24179D01*
X70527Y24200D01*
X70431Y24225D01*
X70335Y24254D01*
X70241Y24287D01*
X70148Y24323D01*
X70057Y24363D01*
X69967Y24407D01*
X69879Y24454D01*
X69793Y24504D01*
X69709Y24558D01*
X69627Y24615D01*
X69548Y24675D01*
X69470Y24739D01*
X69396Y24805D01*
X69324Y24874D01*
X69255Y24946D01*
X69189Y25020D01*
X69125Y25098D01*
X69065Y25177D01*
X69008Y25259D01*
X68954Y25343D01*
X68904Y25429D01*
X68857Y25517D01*
X68813Y25607D01*
X68773Y25698D01*
X68737Y25791D01*
X68704Y25885D01*
X68675Y25981D01*
X68650Y26077D01*
X68629Y26174D01*
X68611Y26273D01*
X68598Y26371D01*
X68588Y26471D01*
X68582Y26570D01*
X68580Y26670D01*
X68580Y54610D02*
X68582Y54710D01*
X68588Y54809D01*
X68598Y54909D01*
X68611Y55007D01*
X68629Y55106D01*
X68650Y55203D01*
X68675Y55299D01*
X68704Y55395D01*
X68737Y55489D01*
X68773Y55582D01*
X68813Y55673D01*
X68857Y55763D01*
X68904Y55851D01*
X68954Y55937D01*
X69008Y56021D01*
X69065Y56103D01*
X69125Y56182D01*
X69189Y56260D01*
X69255Y56334D01*
X69324Y56406D01*
X69396Y56475D01*
X69470Y56541D01*
X69548Y56605D01*
X69627Y56665D01*
X69709Y56722D01*
X69793Y56776D01*
X69879Y56826D01*
X69967Y56873D01*
X70057Y56917D01*
X70148Y56957D01*
X70241Y56993D01*
X70335Y57026D01*
X70431Y57055D01*
X70527Y57080D01*
X70624Y57101D01*
X70723Y57119D01*
X70821Y57132D01*
X70921Y57142D01*
X71020Y57148D01*
X71120Y57150D01*
X86360Y57150D01*
X86360Y24130D02*
X71120Y24130D01*
X88900Y26670D02*
X88900Y54610D01*
M02*
